<?xml version="1.0" encoding="UTF-8" standalone="no"?>
<!DOCTYPE svg PUBLIC "-//W3C//DTD SVG 1.1//EN" "http://www.w3.org/Graphics/SVG/1.1/DTD/svg11.dtd">
<svg width="100%" height="100%" viewBox="0 0 68 68" version="1.1" xmlns="http://www.w3.org/2000/svg" xmlns:xlink="http://www.w3.org/1999/xlink" xml:space="preserve" xmlns:serif="http://www.serif.com/" style="fill-rule:evenodd;clip-rule:evenodd;stroke-linejoin:round;stroke-miterlimit:1.41421;">
    <g transform="matrix(1,0,0,1,-16.0005,-16.0012)">
        <path d="M51.742,67.59C53.035,67.451 54.333,67.181 55.619,66.764C68.172,62.688 75.044,49.208 70.968,36.656C65.874,20.965 49.024,12.375 33.333,17.469C33.333,17.469 43.612,25.059 48.259,32.411C46.966,32.55 45.668,32.82 44.382,33.237C31.829,37.313 24.957,50.793 29.033,63.345C34.127,79.036 50.977,87.626 66.668,82.532C66.668,82.532 56.389,74.943 51.742,67.59ZM44,49C44,45.686 46.686,43 50,43C53.314,43 56,45.686 56,49C56,52.314 53.314,55 50,55C46.686,55 44,52.314 44,49Z" style="fill-rule:nonzero;"/>
    </g>
</svg>
